<svg xmlns="http://www.w3.org/2000/svg" viewBox="0 0 256 256"><linearGradient id="a" gradientUnits="userSpaceOnUse" x1="221.467" y1="-21.579" x2="34.533" y2="277.579"><stop offset="0" stop-color="#1066b1"/><stop offset="1" stop-color="#7c3b97"/></linearGradient><path fill="url(#a)" d="M0 0h256v256H0z"/><path d="M226.3 181c-.4-1.7-2.1-2.7-3.8-2.2l-7.9 2.1-15.9-59.3c-1.8-6.7-8.6-10.6-15.3-8.8l-49.6 13.3c.4-1.4.6-2.9.6-4.4 0-9.2-6.7-16.9-15.5-18.4l-9.5-35.5c-.4-1.7-2.1-2.7-3.8-2.2l-6.1 1.6c-1.7.4-2.7 2.1-2.2 3.8l8.5 31.9h-1.2l-22.2-22c-.9-.9-2-1.6-3-2.5 2.8-2.1 5.2-4.7 7-7.8 3.9-6.4 5-14 3.2-21.3C86.6 36.8 75.3 28 62.4 28c-8.5 0-18.3 4-24.1 13.6-3.9 6.4-5 14-3.2 21.3 1.3 5.4 4.2 10 8 13.6C34.1 82 28 91.8 28 103v106.2c0 10.4 8.4 18.7 18.7 18.7s18.7-8.4 18.7-18.7v-25.8l1.4 1.2 5.1 27.9c1.7 9.3 10.9 17.1 21.9 15 4.9-.9 9.1-3.7 12-7.8 2.9-4.1 3.9-9.1 3-14l-5.5-29.9c-1.3-7.1-5.1-13.7-10.6-18.4L78 144.8v-15.3l11 11h26.7l11.1 41.6c-6.8 4.5-11.4 12.1-11.4 20.9 0 13.8 11.2 25 25 25 12.4 0 22.6-9 24.6-20.9l60.6-16.2c1.7-.4 2.7-2.1 2.2-3.8l-1.5-6.1zM62.4 40.5c7 0 13.4 4.8 15.2 11.9 2.6 10.6-5.8 19.3-15.2 19.3-7 0-13.4-4.8-15.2-11.9-2.6-10.5 5.8-19.3 15.2-19.3zM53 209.2c0 3.4-2.8 6.2-6.2 6.2-3.4 0-6.2-2.8-6.2-6.2V162L53 172.8v36.4zM94.2 128l-23.3-23.3c-.6-.6-1.4-.9-2.2-.9-1.6 0-3.2 1.2-3.2 3.1v43.7L84.7 167c3.4 2.9 5.6 6.8 6.4 11.2l5.5 29.9c.6 3.4-1.6 6.6-5 7.3-.4.1-.8.1-1.1.1-3 0-5.6-2.1-6.1-5.1l-5.5-29.9c-.3-1.5-1.1-2.9-2.3-3.9l-29.5-25.3c-4.2-3.6-6.6-8.8-6.6-14.3v-34c0-10 7.9-18.4 17.9-18.7h.8c6 0 10.9 2 14.3 5.5l25.7 25.7h16.2c3.4 0 6.2 2.8 6.2 6.2 0 3.4-2.8 6.2-6.2 6.2H94.2zm46.3 87.5c-6.9 0-12.5-5.6-12.5-12.5s5.6-12.5 12.5-12.5S153 196.1 153 203s-5.6 12.5-12.5 12.5zm23.4-21c-3.5-9.6-12.6-16.5-23.4-16.5-.6 0-1.1.1-1.7.2l-10.1-37.7 57.9-15.5 15.9 59.3-38.6 10.2z" fill="#fff"/></svg>